<?xml version="1.0" encoding="utf-8"?>
<!-- Generator: Adobe Illustrator 23.0.2, SVG Export Plug-In . SVG Version: 6.00 Build 0)  -->
<svg version="1.1" id="Lager_1" xmlns="http://www.w3.org/2000/svg" xmlns:xlink="http://www.w3.org/1999/xlink" x="0px" y="0px"
	 viewBox="0 0 440.65 221.84" style="enable-background:new 0 0 440.65 221.84;" xml:space="preserve">
<style type="text/css">
	.st0{fill:#258BCA;}
	.st1{fill:#487DAD;}
	.st2{fill:#8D768C;}
	.st3{fill:#C25D6A;}
</style>
<g>
	<g>
		<rect id="XMLID_39_" x="-0.01" width="440.66" height="221.85"/>
		<path id="XMLID_37_" class="st0" d="M57.22,78.6c0.24,0.11,0.5,0.34,0.77,0.7l41.42,55.44c-0.09-0.9-0.14-1.78-0.14-2.62V78.45
			h4.07v63.98h-2.22c-0.69,0-1.25-0.3-1.67-0.9L57.85,86c0.09,0.9,0.14,1.76,0.14,2.58v53.85h-4.02V78.45h2.26
			C56.65,78.44,56.98,78.49,57.22,78.6z"/>
		<path id="XMLID_35_" class="st0" d="M147.63,139.12c3.07,0,5.82-0.54,8.25-1.61c2.43-1.07,4.48-2.55,6.17-4.45
			c1.69-1.9,2.98-4.14,3.87-6.72c0.89-2.58,1.33-5.36,1.33-8.34V78.43h4.61V118c0,3.53-0.56,6.82-1.67,9.88
			c-1.12,3.06-2.72,5.73-4.82,8c-2.1,2.28-4.64,4.06-7.64,5.36s-6.37,1.94-10.11,1.94s-7.11-0.65-10.11-1.94
			c-3-1.3-5.55-3.08-7.64-5.36c-2.1-2.28-3.7-4.94-4.82-8s-1.67-6.35-1.67-9.88V78.43h4.66v39.52c0,2.98,0.44,5.77,1.33,8.34
			c0.89,2.58,2.17,4.82,3.84,6.71c1.67,1.9,3.72,3.39,6.15,4.48C141.8,138.58,144.55,139.12,147.63,139.12z"/>
		<path id="XMLID_33_" class="st1" d="M235.38,78.44v3.93h-22.47v60.05h-4.61V82.38h-22.61v-3.93h49.69V78.44z"/>
		<path id="XMLID_31_" class="st2" d="M326.29,142.42h-4.66V78.44h4.66V142.42z"/>
		<g id="XMLID_27_">
			<polygon id="XMLID_30_" class="st3" points="386.68,111.9 370.31,111.9 346.81,111.9 346.81,108.15 386.68,108.15 			"/>
			<rect id="XMLID_29_" x="346.81" y="78.44" class="st3" width="39.87" height="3.75"/>
			<rect id="XMLID_28_" x="346.81" y="138.68" class="st3" width="39.87" height="3.75"/>
		</g>
		<path id="XMLID_26_" class="st2" d="M251.1,142.31h3.84v-19.73h27.95l14.25,19.73h4.93l-15.89-21.93c0,0,13.68-2.36,13.98-18.09
			c0,0,1.92-24.49-21.1-23.84h-27.95v4.11h28.5c0,0,16.67-1.2,16.17,18.91c0,0,0.82,16.17-17.81,16.44h-26.86L251.1,142.31
			L251.1,142.31z"/>
	</g>
</g>
</svg>
