<?xml version="1.0" encoding="utf-8"?>
<!-- Generator: Adobe Illustrator 23.0.2, SVG Export Plug-In . SVG Version: 6.00 Build 0)  -->
<svg version="1.1" id="Lager_1" xmlns="http://www.w3.org/2000/svg" xmlns:xlink="http://www.w3.org/1999/xlink" x="0px" y="0px"
	 viewBox="0 0 440.66 221.85" style="enable-background:new 0 0 440.66 221.85;" xml:space="preserve">
<style type="text/css">
	.st0{fill:#FFFFFF;}
	.st1{fill:#878787;}
</style>
<g>
	<g>
		<rect id="XMLID_18_" class="st0" width="440.66" height="221.85"/>
		<g id="XMLID_17_">
			<path id="XMLID_11_" class="st1" d="M57.23,78.81c0.24,0.11,0.5,0.34,0.77,0.7l41.42,55.44c-0.09-0.9-0.14-1.78-0.14-2.62V78.66
				h4.07v63.98h-2.22c-0.69,0-1.25-0.3-1.67-0.9l-41.6-55.53c0.09,0.9,0.14,1.76,0.14,2.58v53.85h-4.02V78.66h2.26
				C56.66,78.65,56.99,78.7,57.23,78.81z"/>
			<path id="XMLID_13_" class="st1" d="M147.64,139.33c3.07,0,5.82-0.54,8.25-1.61c2.43-1.07,4.48-2.55,6.17-4.45
				c1.69-1.9,2.98-4.14,3.87-6.72c0.89-2.58,1.33-5.36,1.33-8.34V78.64h4.61v39.57c0,3.53-0.56,6.82-1.67,9.88
				c-1.12,3.06-2.72,5.73-4.82,8c-2.1,2.28-4.64,4.06-7.64,5.36s-6.37,1.94-10.11,1.94s-7.11-0.65-10.11-1.94
				c-3-1.3-5.55-3.08-7.64-5.36c-2.1-2.28-3.7-4.94-4.82-8s-1.67-6.35-1.67-9.88V78.64h4.66v39.52c0,2.98,0.44,5.77,1.33,8.34
				c0.89,2.58,2.17,4.82,3.84,6.71c1.67,1.9,3.72,3.39,6.15,4.48C141.81,138.79,144.56,139.33,147.64,139.33z"/>
			<path id="XMLID_15_" class="st1" d="M235.39,78.65v3.93h-22.47v60.05h-4.61V82.58H185.7v-3.93H235.39z"/>
			<path id="XMLID_20_" class="st1" d="M326.3,142.63h-4.66V78.65h4.66V142.63z"/>
			<g id="XMLID_7_">
				<polygon id="XMLID_6_" class="st1" points="386.69,112.1 370.32,112.1 346.82,112.1 346.82,108.35 386.69,108.35 				"/>
				<rect id="XMLID_8_" x="346.82" y="78.65" class="st1" width="39.87" height="3.75"/>
				<rect id="XMLID_24_" x="346.82" y="138.88" class="st1" width="39.87" height="3.75"/>
			</g>
			<path id="XMLID_25_" class="st1" d="M251.11,142.51h3.84v-19.73h27.95l14.25,19.73h4.93l-15.89-21.92c0,0,13.68-2.36,13.98-18.09
				c0,0,1.92-24.49-21.1-23.84h-27.95v4.11h28.5c0,0,16.67-1.2,16.17,18.91c0,0,0.82,16.17-17.81,16.44h-26.86L251.11,142.51
				L251.11,142.51z"/>
		</g>
	</g>
</g>
</svg>
